<svg width="276" height="48" viewBox="0 0 276 48" fill="none" xmlns="http://www.w3.org/2000/svg">
<path d="M45.9097 18.878C44.8199 18.2861 42.244 18.0888 37.4885 18.2861H37.1912C35.7051 18.2861 34.3181 18.4834 33.3274 18.5821H33.2283C33.0302 18.5821 32.733 18.5821 32.5348 18.6807C32.733 17.8915 33.0302 16.8064 33.4265 15.4252C34.12 12.4657 33.8228 10.8873 33.6246 9.40748C33.5255 9.11152 33.5255 8.81557 33.5255 8.42096C33.3274 6.44793 32.3367 3.78434 31.6432 2.50187C30.6524 0.726137 28.0765 0.430182 27.7793 0.430182C27.1849 0.33153 26.0951 0.33153 25.5997 1.12074C25.4016 1.4167 25.3025 2.00861 25.2034 3.48838V3.68569C25.1043 3.68569 25.1043 4.08029 25.1043 4.6722V5.75737C25.1043 6.74389 25.0053 7.92771 25.0053 8.71692C24.9062 10.394 23.7173 12.663 23.321 13.3535C22.9247 14.0441 21.7359 15.7212 20.9433 16.905C20.4479 17.5956 19.9526 18.2861 19.7544 18.6807C18.9618 19.9632 17.2776 20.0619 17.0794 20.0619C16.9804 20.0619 16.8813 20.1605 16.8813 20.1605C16.7822 20.2592 16.7822 20.3578 16.7822 20.3578L16.8813 21.3443C16.8813 21.3443 16.8813 21.5416 16.9804 21.6403C16.9804 21.6403 17.0794 21.7389 17.2776 21.7389C18.3674 21.6403 20.2498 21.2457 21.3396 19.4699C21.5377 19.174 21.934 18.5821 22.4294 17.9902L22.5285 17.7929C23.4201 16.5104 24.5099 14.932 25.0053 14.1428C25.6988 12.9589 26.7886 10.69 26.8877 8.81557C26.8877 8.02636 26.9867 6.94119 26.9867 6.05332V5.36276C26.9867 4.57355 27.0858 3.88299 27.0858 3.68569V3.48838C27.0858 2.79782 27.1849 2.30456 27.1849 2.10726C27.284 2.10726 27.4821 2.10726 27.7793 2.10726C28.1756 2.10726 29.6617 2.40321 30.058 3.19243C30.7515 4.37625 31.5441 6.74389 31.7422 8.51962C31.7422 8.81557 31.8413 9.11152 31.8413 9.40748V9.60478C32.0395 10.9859 32.3367 12.367 31.6432 15.0306C30.8506 18.1875 30.5534 18.878 30.4543 19.0753C30.3552 19.3713 30.3552 19.7659 30.5534 19.9632C30.9496 20.5551 31.445 20.4565 33.4265 20.2592C34.5163 20.1605 35.8042 20.0619 37.1912 19.9632H37.4885C43.2347 19.7659 44.6217 20.1605 44.9189 20.3578C45.8106 20.8511 46.2069 21.147 45.8106 22.7255L45.5134 23.712C45.4143 24.0079 45.2161 24.2052 45.018 24.3039C44.7208 24.5012 44.2254 24.5012 43.3338 24.5012H41.8477C41.5505 24.5012 41.2532 24.5998 41.0551 24.7971C40.8569 24.9944 40.8569 25.1917 40.7579 25.4877C40.7579 25.5863 40.6588 25.5863 40.6588 25.685C40.5597 25.8823 40.5597 25.981 40.6588 26.0796C40.7579 26.1783 40.956 26.2769 41.0551 26.2769C41.5504 26.2769 42.4421 26.2769 43.3338 26.2769C44.4236 26.2769 45.2161 26.1783 45.8106 25.8823C45.8106 25.8823 46.0087 25.7837 46.405 25.4877C46.7022 25.1917 47.0985 24.5012 47.3958 23.712C47.3958 23.712 47.3958 23.6133 47.3958 23.5147C47.3958 23.416 47.4948 23.2187 47.4948 23.2187V23.1201C48.0893 20.6538 47.2967 19.6673 45.9097 18.878Z" fill="#B99B68"/>
<path d="M44.0271 32.1959C43.829 32.1959 43.3336 32.3932 43.0364 32.4919C42.8383 32.5905 42.7392 32.7878 42.6401 32.9851C42.541 33.1824 42.541 33.2811 42.541 33.3797C42.541 33.4784 42.442 33.6757 42.442 33.873C42.442 33.9717 42.3429 34.0703 42.3429 34.169L42.2438 34.4649C41.9466 35.1555 41.6494 35.3528 40.0642 35.3528H39.8661C39.4698 35.3528 38.9744 35.3528 38.5781 35.3528C38.38 35.3528 37.9837 35.3528 37.7855 35.6487C37.5874 35.846 37.5874 36.0433 37.4883 36.3393C37.4883 36.4379 37.3892 36.4379 37.3892 36.5366C37.2902 36.7339 37.2902 36.8325 37.3892 36.9312C37.4883 37.0299 37.6865 37.1285 37.7855 37.1285C38.2809 37.1285 39.1726 37.1285 40.0642 37.1285C42.3429 37.1285 43.3336 36.6352 43.9281 35.0568C44.1262 34.6622 44.2253 34.2676 44.3244 33.7743C44.4234 33.577 44.5225 33.2811 44.6216 32.9851C44.6216 32.7878 44.7206 32.5905 44.6216 32.4919C44.4234 32.0973 44.2253 32.0973 44.0271 32.1959Z" fill="#B99B68"/>
<path d="M41.8478 37.5232H41.6496H41.5506H41.4515C41.1543 37.5232 40.9561 37.6218 40.758 37.7205C40.6589 37.8191 40.4607 38.0164 40.2626 38.4111V38.5097C39.1728 40.4827 38.5784 40.7787 37.9839 40.976H37.8849C36.4978 41.5679 33.3275 41.6666 30.8507 41.1733C30.3553 41.0746 29.7609 40.976 29.1664 40.8773C26.9868 40.4827 24.8072 40.0881 23.5193 40.2854L18.2684 41.0747C18.2684 41.0747 18.1693 41.0746 18.0703 41.1733C17.9712 41.272 17.9712 41.3706 17.9712 41.5679C17.9712 41.5679 17.9712 42.1598 18.0703 42.4558C18.0703 42.5544 18.1693 42.6531 18.1693 42.7517C18.2684 42.8504 18.4666 42.7517 18.4666 42.7517L23.8165 41.9625C24.9063 41.7652 27.0859 42.1598 28.9683 42.5544C29.5627 42.6531 30.0581 42.7517 30.6525 42.8504C31.7423 43.0477 33.0303 43.1463 34.2192 43.1463C36.1015 43.1463 37.6867 42.949 38.6774 42.5544C39.8663 42.0612 40.857 41.4693 42.3431 38.2138C42.5413 37.9178 42.5413 37.7205 42.4422 37.5232C42.3431 37.5232 42.0459 37.5232 41.8478 37.5232Z" fill="#B99B68"/>
<path d="M45.8113 26.8689C45.6131 26.8689 45.1178 27.0662 44.8205 27.1648C44.6224 27.2635 44.5233 27.4608 44.5233 27.5595C44.4242 27.7568 44.4242 27.8554 44.4242 27.9541C44.4242 28.0527 44.3252 28.25 44.3252 28.4473V28.546C44.3252 28.6446 44.2261 28.7433 44.2261 28.7433L43.9289 29.0392C43.7307 29.4338 43.6317 29.6311 43.3344 29.7298C43.0372 29.8284 42.4428 29.9271 41.7493 29.9271C41.2539 29.9271 40.7585 29.9271 40.2632 29.9271C40.065 29.9271 39.8669 29.9271 39.6687 30.1244C39.5697 30.2231 39.4706 30.223 39.4706 30.3217C39.2725 30.519 39.2725 30.7163 39.1734 31.0123C39.1734 31.1109 39.0743 31.1109 39.0743 31.2096C38.9752 31.4069 38.9752 31.5055 39.0743 31.6042C39.1734 31.7028 39.3715 31.8015 39.4706 31.8015C39.966 31.8015 40.8576 31.8015 41.7493 31.8015C42.9381 31.8015 43.7307 31.6042 44.3252 31.3082C44.9196 31.0123 45.3159 30.519 45.6131 29.6311C45.8113 29.2365 45.9103 28.7433 46.1085 28.3487C46.2076 28.1514 46.3066 27.8554 46.3066 27.6581C46.4057 27.4608 46.4057 27.2635 46.3066 27.1648C46.1085 26.7702 45.9103 26.7702 45.8113 26.8689Z" fill="#B99B68"/>
<path d="M14.8998 20.4565C14.8998 19.9632 14.5035 19.6673 14.0081 19.6673H9.64894C9.54987 19.6673 9.35172 19.6673 9.25265 19.7659C9.15357 19.8646 9.25265 20.0619 9.25265 20.1605C9.25265 20.2592 9.35172 20.2592 9.35172 20.3578C9.45079 20.5551 9.54987 20.7524 9.64894 20.9497C9.84708 21.2457 10.3425 21.2457 10.5406 21.2457H12.9183C13.1165 21.2457 13.1165 21.2457 13.1165 21.3443L13.7109 30.3216C13.7109 30.4203 13.7109 30.5189 13.7109 30.6176C13.7109 30.8149 13.7109 30.8149 13.6119 30.8149H10.8378C10.7387 30.8149 10.5406 30.8149 10.4415 30.9135C10.3425 31.0122 10.4415 31.2095 10.4415 31.3081C10.4415 31.4068 10.5406 31.4068 10.5406 31.5055C10.6397 31.7028 10.7387 31.9001 10.8378 32.196C11.036 32.492 11.4323 32.492 11.7295 32.492H13.6119C13.81 32.492 13.9091 32.492 13.9091 32.5906L14.5035 41.7652C14.5035 41.9625 14.5035 41.9625 14.4044 41.9625H10.4415C10.4415 41.9625 10.2434 41.9625 10.1443 41.9625C9.94616 41.9625 9.0545 41.8639 8.85636 41.0747C8.75728 40.7787 8.75728 40.0881 8.65821 39.8908C8.65821 39.8908 8.46006 36.9313 8.36099 35.3529C8.36099 35.0569 8.36099 34.8596 8.26192 34.5637V34.3664V34.2677C8.16285 33.2812 7.86563 32.6893 7.27119 32.0974C7.07304 31.9987 6.8749 31.8014 6.67675 31.7028C7.37026 31.1108 7.66748 30.6176 7.86563 29.927C8.06377 29.2365 7.9647 27.5594 7.9647 27.4607L7.76655 23.2187C7.76655 23.1201 7.66748 22.2322 7.56841 21.7389C7.17212 19.9632 5.28973 19.5686 4.59622 19.5686H0.83145C0.633304 19.5686 0.336086 19.6673 0.237013 19.8646C0.0388668 20.0619 -0.0602061 20.2592 0.0388668 20.4565L1.32681 43.0477C1.32681 43.541 1.72311 43.8369 2.21847 43.8369H4.99251C5.09159 43.8369 5.28973 43.8369 5.3888 43.7383C5.48788 43.6396 5.3888 43.4423 5.3888 43.3437C5.3888 43.245 5.3888 43.245 5.28973 43.1463C5.19066 42.949 5.09159 42.7517 4.99251 42.4558C4.79437 42.1598 4.299 42.1598 4.10086 42.1598H3.30827C3.01105 42.1598 3.01105 42.1598 3.01105 42.0612L1.72311 21.443H4.39808C4.39808 21.443 5.48788 21.443 5.68602 22.3308C5.7851 22.6268 5.7851 23.416 5.88417 23.5147C5.88417 23.5147 5.98324 25.685 6.08231 27.658C6.28046 30.0257 5.88417 30.3216 5.68602 30.5189C5.28973 30.9135 4.99251 31.2095 4.79437 31.3081C4.59622 31.4068 4.39808 31.5055 4.299 31.6041C4.19993 31.6041 4.10086 31.7028 4.10086 31.7028C4.10086 31.7028 4.00178 31.8014 4.00178 31.9001C4.00178 31.9987 4.10086 32.0974 4.49715 32.2947C4.79437 32.3933 5.09159 32.5906 5.68602 32.9852C5.88417 33.0839 6.08231 33.2812 6.28046 33.5771C6.28046 33.5771 6.28046 33.6758 6.37953 33.6758C6.28046 33.6758 6.28046 33.7744 6.28046 33.8731C6.47861 34.3664 6.57768 34.8596 6.57768 35.4515C6.57768 35.5502 6.57768 35.7475 6.57768 35.8461L6.8749 40.1868C6.8749 40.4828 6.97397 41.1733 7.07304 41.6666C7.46934 43.4423 9.35172 43.8369 10.0452 43.8369H15.3952C15.5933 43.8369 15.8905 43.7383 15.9896 43.541C16.1877 43.3437 16.2868 43.1464 16.1878 42.949L14.8998 20.4565Z" fill="#231F20"/>
<path d="M121.403 21.443C119.025 21.7389 117.143 22.8241 115.657 24.6985C114.963 25.5863 114.171 25.8823 112.883 25.8823C111.595 25.8823 110.109 25.7836 108.821 24.5998C108.524 24.3039 108.226 24.1066 107.929 24.1066C107.731 24.1066 107.335 24.2052 107.038 24.7971C106.542 25.8823 105.948 27.2634 105.552 28.6445C104.858 31.3081 102.48 32.196 100.598 32.6893C100.103 32.7879 99.7062 32.6893 99.5081 32.492C99.3099 32.2947 99.2109 31.9 99.3099 31.5054C99.6072 28.3486 103.174 24.4025 106.443 23.8106C106.641 23.8106 106.839 23.6133 107.038 23.416L107.236 23.1201L107.038 22.8241C106.74 22.4295 106.542 22.3308 106.344 22.2322C105.552 22.1335 104.759 22.2322 104.165 22.5281C100.697 23.9093 98.4183 26.3756 97.3285 29.8284C97.1303 30.5189 97.0312 31.4068 97.0312 32.2947C97.1303 33.8731 98.6164 35.1556 100.301 35.1556C103.57 35.1556 107.731 32.492 108.028 29.3351C108.028 28.8418 108.226 28.3486 108.226 27.954C108.226 27.7567 108.326 27.658 108.326 27.5594V27.4607L113.378 28.3486V28.4472C113.279 28.7432 113.279 29.0392 113.18 29.3351C113.081 30.0257 112.883 30.7162 112.784 31.5054C112.685 32.8866 113.081 33.9717 114.072 34.6623C115.162 35.3529 116.35 35.4515 117.638 34.7609C118.035 34.5636 118.53 34.2677 118.926 33.9717C119.125 33.7744 119.422 33.6758 119.719 33.4785L119.917 33.3798L119.719 34.2677C119.62 34.5636 119.521 34.8596 119.422 35.1556C118.827 37.1286 118.431 38.4111 118.035 39.5949C117.539 41.0747 117.143 42.4558 116.45 44.7248V44.8234C116.251 45.6126 115.954 46.5991 117.143 46.9938C117.341 47.0924 117.44 47.0924 117.638 47.0924C118.332 47.0924 118.53 46.4018 118.629 45.8099L118.728 45.514C119.323 43.7382 119.719 42.6531 120.115 41.5679C120.611 40.2854 121.007 39.1016 121.601 37.0299L122.196 35.1556C122.889 32.9852 123.583 30.8149 124.177 28.6445C124.375 28.0526 124.474 27.1648 123.682 26.8688C123.385 26.7702 122.592 26.9675 122.196 27.3621C121.304 28.1513 120.512 28.9405 119.62 29.8284C118.926 30.5189 118.233 31.3081 117.44 31.9987C117.143 32.2947 116.747 32.492 116.251 32.6893C116.053 32.7879 115.855 32.8866 115.558 33.0839L115.459 33.1825L115.36 32.6893C115.36 32.492 115.261 32.3933 115.261 32.2947C115.063 29.1378 118.431 24.5998 121.601 23.9093C122.394 23.712 123.087 23.9093 123.88 24.5012C124.078 24.6985 124.474 24.7971 124.871 24.7971H125.267L125.366 24.4025C125.465 24.0079 125.564 23.712 125.366 23.416C124.772 22.1335 122.988 21.2457 121.403 21.443Z" fill="#231F20"/>
<path d="M196.401 21.739C194.42 21.6403 192.636 22.3309 190.853 23.712C190.259 24.2053 189.565 24.7972 188.971 25.2904L187.98 26.0796V25.8823C187.881 25.3891 187.98 24.9945 188.079 24.6985C189.169 21.8376 190.06 19.7659 190.853 17.7929L190.952 17.5956C191.745 15.6226 192.636 13.5509 193.726 10.5913C193.726 10.4927 193.825 10.2954 193.924 10.1967C194.023 9.90077 194.221 9.50616 194.221 9.21021C194.221 8.8156 194.023 8.22369 193.924 8.12504L193.825 8.02639H193.726C193.627 8.02639 193.528 7.92773 193.33 7.92773C192.933 7.92773 192.537 8.02639 192.438 8.22369C191.943 8.8156 191.646 9.50616 191.348 10.2954C190.358 12.959 189.466 14.932 188.772 16.8064L188.673 16.905C187.683 19.2727 186.791 21.443 185.503 24.8958C184.809 26.6715 184.116 28.5459 183.522 30.4203L182.729 32.5906C182.531 33.1826 182.432 33.8731 183.224 34.465C183.918 34.8596 184.512 34.761 185.008 33.9718C185.107 33.8731 185.206 33.6758 185.305 33.5772L185.503 33.2812C187.584 30.223 190.06 27.4608 192.933 25.2904C193.429 24.8958 195.014 23.8106 196.302 23.8106C196.599 23.8106 196.896 23.9093 197.095 24.008C197.194 24.1066 197.293 24.2053 197.293 24.4026C197.392 25.0931 196.797 26.2769 196.401 26.6715C195.113 28.4473 194.023 29.5324 192.834 30.4203C192.24 30.8149 191.646 31.2095 190.853 31.7028C189.862 32.2947 188.871 32.9853 187.98 33.5772C187.683 33.8731 187.286 34.5637 187.484 34.9583L187.584 35.0569C187.782 35.2542 188.277 35.3529 188.673 35.3529C188.772 35.3529 188.971 35.3529 189.169 35.2542C192.636 33.5772 195.708 31.4068 197.293 29.4338C198.283 28.0527 198.977 26.4742 199.373 24.8958C199.571 24.1066 199.373 23.416 198.977 22.9228C198.382 22.2322 197.491 21.8376 196.401 21.739Z" fill="#231F20"/>
<path d="M150.432 33.6759H150.135C147.163 33.4786 145.875 32.1961 145.776 29.3352C145.776 26.8689 144.785 25.1918 142.903 23.8107C142.506 23.5147 142.11 22.9228 142.011 22.4296C141.813 21.5417 141.516 20.6538 140.426 20.4565C139.93 20.3579 139.237 20.5552 138.94 20.9498C138.345 21.5417 138.642 22.3309 139.237 23.2188C139.435 23.6134 139.633 24.2053 139.435 24.5999C137.454 28.1514 134.481 30.7163 130.618 32.1961C129.726 32.492 129.132 32.492 128.735 32.0974C128.438 31.7028 128.24 31.1109 128.339 30.2231V30.1244H128.438C131.014 30.1244 134.184 28.1514 135.076 26.0797C135.571 24.7972 135.373 23.4161 134.581 22.7255C134.085 22.3309 133.59 22.1336 132.995 22.1336C132.401 22.1336 131.806 22.3309 131.41 22.5282C129.231 23.5147 127.645 25.2905 126.655 28.1514C126.258 29.1379 126.159 30.223 126.258 31.3082C126.457 33.3799 127.943 34.6624 129.924 34.4651C131.014 34.3664 132.104 34.0705 132.995 33.6759C136.463 31.9001 139.138 29.4338 141.02 26.277C141.119 26.0797 141.218 25.981 141.317 25.7837L141.516 25.4878L141.615 25.5864C142.903 26.4743 143.299 26.8689 143.497 28.1514C143.596 28.546 143.596 28.9406 143.596 29.3352C143.596 29.8284 143.596 30.3217 143.695 30.815L143.794 31.1109C143.992 31.9001 144.191 32.8866 144.686 33.3799C146.073 34.6624 147.757 35.3529 149.441 35.3529C149.937 35.3529 150.432 35.2543 150.928 35.1556C151.324 35.057 151.918 34.761 152.017 34.4651L152.116 34.2678L151.918 34.0705C151.918 33.8732 151.522 33.6759 150.432 33.6759ZM133.491 23.9093C133.193 26.1783 131.707 26.8689 130.122 27.5595C129.825 27.6581 129.528 27.8554 129.231 27.9541L129.032 28.0527L129.131 27.8554C129.924 26.0797 130.915 24.4026 133.392 23.8107H133.491V23.9093Z" fill="#231F20"/>
<path d="M185.9 38.707C185.603 38.707 185.405 38.8056 185.107 38.8056C185.008 38.8056 184.909 38.8056 184.81 38.9043C183.225 39.2003 181.541 39.4962 179.956 39.7922H179.857C176.587 40.3841 173.318 40.976 170.048 41.4692C166.977 41.9625 164.203 41.9625 161.726 41.3706C160.141 41.0746 159.051 40.1868 158.655 38.9043L158.556 38.5097C158.259 37.6218 157.862 36.6353 157.862 35.7474C157.961 33.4785 158.061 30.8149 158.655 28.4472L158.754 28.2499C159.646 25.1917 162.915 14.8333 165.986 9.11151C165.986 9.01286 166.085 9.01286 166.085 8.9142L166.184 8.7169C166.383 8.32229 166.581 7.92769 166.68 7.43443C166.68 7.23713 166.581 6.94117 166.383 6.64522L166.085 6.25061L165.788 6.34926C165.689 6.34926 165.59 6.34926 165.491 6.44791C165.095 6.54657 164.698 6.54657 164.5 6.74387C164.203 7.03982 164.005 7.33578 163.807 7.73038L163.708 7.92769C162.222 11.0845 160.735 14.8333 159.051 19.6672L158.952 19.8645L158.457 21.2457C157.367 24.2052 156.475 27.2634 155.881 30.3216C155.187 33.5771 155.286 36.2407 156.178 38.8056C157.268 41.6665 159.15 43.1463 162.321 43.6396C162.816 43.7382 163.311 43.7382 163.906 43.8369L164.797 43.9355C165.293 43.9355 165.788 43.9355 166.284 43.9355C169.652 43.9355 172.822 43.3436 175.993 42.8504L176.587 42.7517C179.857 42.1598 183.225 41.3706 185.9 40.7787C186.395 40.68 186.99 40.4827 187.089 40.1868C187.188 39.9895 187.188 39.6935 186.99 39.3976C186.693 38.9043 186.395 38.707 185.9 38.707Z" fill="#231F20"/>
<path d="M174.308 20.8511L174.209 20.7524L172.426 20.8511C171.138 20.9497 169.85 21.0484 168.562 21.147L167.77 21.2457C166.779 21.3444 165.788 21.3444 164.797 21.5417C164.401 21.6403 163.906 22.1336 163.906 22.5282C163.906 22.9228 164.302 23.416 164.599 23.6133C164.797 23.712 164.996 23.8106 165.392 23.8106C165.491 23.8106 165.689 23.8106 165.887 23.8106C168.166 23.6133 170.147 23.416 171.931 23.3174C173.12 23.2187 174.11 23.0214 174.903 22.9228C175.2 22.8241 175.596 22.4295 175.596 22.0349C175.596 21.6403 175.2 21.2457 175.002 21.147C174.705 20.9497 174.507 20.8511 174.308 20.8511Z" fill="#231F20"/>
<path d="M161.131 5.16547C161.329 5.26412 161.626 5.26412 161.924 5.26412C162.122 5.26412 162.419 5.26412 162.518 5.16547C163.509 4.96816 164.599 4.67221 165.788 4.2776C168.264 3.58704 170.84 3.09378 173.416 2.79783C177.676 2.30457 181.837 2.10727 185.602 2.30457C186.593 2.30457 187.485 2.40322 188.277 2.60052H188.376H188.475C188.971 2.50187 189.268 2.40322 189.466 2.20592C189.664 2.00861 189.862 1.71266 189.763 1.4167C189.763 1.0221 189.565 0.726143 189.07 0.430188L188.872 0.331537C187.683 0.134233 186.395 0.0355817 185.008 0.0355817C182.234 -0.06307 179.063 0.0355816 175.299 0.430188C171.633 0.726143 168.165 1.4167 165.094 2.30457C164.698 2.40322 164.202 2.50187 163.806 2.69918C163.806 2.69918 162.815 2.99513 162.716 2.99513C162.617 2.99513 162.419 3.09378 162.221 3.19243L161.924 3.09378C161.825 3.19243 161.626 3.19243 161.527 3.29109C161.428 3.29109 161.23 3.38974 161.131 3.38974L160.834 3.58704L160.735 3.98165C160.537 4.77086 161.032 5.06681 161.131 5.16547Z" fill="#231F20"/>
<path d="M250 12.1697C249.703 11.9724 249.307 11.7751 248.91 11.6765C248.118 11.5778 247.424 11.5778 246.632 11.4792C246.235 11.4792 245.839 11.4792 245.443 11.3805C243.858 11.2819 242.173 11.1832 240.588 11.0846L237.814 10.8873L238.111 10.1967C238.211 9.90076 238.31 9.70346 238.409 9.4075C238.706 8.71694 238.904 8.12503 239.003 7.82907C239.102 7.23716 239.003 6.84256 238.805 6.5466L238.706 6.44795H238.607C238.111 6.3493 237.616 6.44795 237.22 6.94121C236.923 7.33582 236.625 7.82907 236.427 8.22368C236.031 9.01289 235.932 9.30885 235.833 9.4075V9.50615C235.833 9.50615 235.833 9.6048 235.734 9.70346C235.337 10.394 235.139 10.7886 234.248 10.7886C234.248 10.7886 233.95 10.7886 233.752 10.7886L231.87 10.69C229.492 10.5913 227.412 10.5913 225.232 10.5913C224.439 10.5913 223.548 10.5913 222.755 10.69C222.062 10.69 221.467 10.7886 220.774 10.7886C219.387 10.7886 218.198 10.8873 217.108 11.3805C216.811 11.4792 216.613 11.7751 216.514 11.9724C216.415 12.2684 216.514 12.4657 216.712 12.663C216.91 12.8603 217.405 12.959 218.099 12.959C218.495 12.959 218.891 12.8603 219.387 12.7617C219.981 12.663 220.476 12.5644 221.071 12.5644C221.764 12.5644 223.251 12.5644 223.251 12.5644C226.025 12.5644 228.898 12.5644 231.275 12.663C231.771 12.663 232.365 12.7617 232.861 12.7617L233.851 12.8603L233.554 13.4522C233.455 13.7482 233.356 14.0441 233.158 14.3401C230.78 19.6673 229.195 23.8106 228.006 29.3351L227.907 29.6311C227.808 29.927 227.709 30.223 227.61 30.7163C227.213 31.4068 226.817 31.9001 226.421 32.2947C226.025 32.492 225.727 32.6893 225.331 32.8866C224.538 33.1825 223.746 33.3798 222.953 33.2812C222.854 33.2812 222.755 33.2812 222.656 33.2812C221.864 33.0839 221.467 32.5906 221.566 31.8014C221.566 31.5055 221.665 31.2095 221.665 31.0122V30.8149C221.764 30.0257 221.864 29.2365 222.062 28.5459C222.656 26.8688 222.359 25.3891 221.17 23.9093C220.972 23.712 220.873 23.5147 220.675 23.3174C220.576 23.2187 220.476 23.1201 220.278 22.9228C220.08 22.7255 219.783 22.4295 219.585 22.2322C219.486 22.1336 219.387 21.9363 219.288 21.8376C218.99 21.443 218.891 21.0484 218.792 20.6538C218.792 20.3578 218.792 20.0619 218.792 19.7659C218.792 19.5686 218.792 19.174 218.495 18.8781C218.396 18.7794 218.396 18.7794 218.297 18.6808C218 18.4835 217.702 18.2861 217.306 18.2861C217.108 18.2861 216.91 18.2861 216.712 18.2861C216.613 18.2861 216.514 18.2861 216.415 18.3848C216.216 18.4835 216.018 18.5821 215.919 18.6808C215.82 18.7794 215.82 18.8781 215.721 18.8781C215.622 18.9767 215.622 19.0754 215.622 19.174C215.523 19.47 215.523 19.8646 215.622 20.2592C215.721 20.4565 215.82 20.6538 215.919 20.9497C216.018 21.147 216.117 21.3443 216.216 21.6403C216.315 21.8376 216.315 22.1336 216.415 22.2322C216.415 22.4295 216.415 22.6268 216.315 22.7255C216.018 23.1201 215.622 23.5147 215.325 24.0079C215.027 24.4025 214.631 24.7972 214.235 25.1918C211.857 27.8554 209.38 29.8284 206.705 31.2095L206.111 31.5055C205.021 31.9987 204.427 32.0974 204.129 32.0974C204.03 32.0974 203.832 32.0974 203.634 32.0974C203.04 32.0974 202.544 31.9987 202.346 31.7028C202.247 31.6041 202.247 31.6041 202.247 31.5055C202.148 31.3082 202.148 31.1109 202.148 30.9136C202.148 30.519 202.445 29.927 202.643 29.8284C204.823 29.5324 206.705 28.6446 208.687 26.9675C209.479 26.2769 210.173 25.2904 210.668 24.1066C210.767 23.712 210.866 23.416 210.767 23.0214C210.767 22.7255 210.569 22.4295 210.371 22.1336C209.975 21.6403 209.281 21.3443 208.39 21.443C207.498 21.5417 206.606 21.8376 205.814 22.2322C203.436 23.6133 201.554 25.4877 200.365 27.954C199.968 28.7432 199.77 29.6311 199.77 30.4203C199.77 31.2095 199.869 31.9987 200.266 32.5906C200.464 32.9852 200.761 33.2812 201.058 33.5772C201.455 33.8731 202.247 34.2677 203.139 34.2677C204.427 34.1691 206.111 33.4785 206.804 33.1825C207.201 32.9852 208.092 32.492 209.182 31.8014L209.578 31.5055C210.173 31.1109 210.767 30.7163 211.065 30.4203C212.253 29.5324 213.343 28.4473 214.532 27.1648C215.027 26.5729 215.523 26.0796 216.018 25.4877C216.315 25.0931 216.613 24.7972 216.91 24.4025L217.802 23.2187H217.901C218.297 23.5147 218.693 23.712 218.99 24.0079C219.189 24.2052 219.486 24.4025 219.585 24.5999C220.278 25.4877 220.377 26.3756 219.882 27.954C219.684 28.6446 219.486 29.3351 219.288 30.0257C219.189 30.223 219.189 30.519 219.189 30.7163C218.891 32.2947 219.387 33.5772 220.476 34.465C220.972 34.8596 221.467 35.0569 221.963 35.1556L222.359 35.2542C222.458 35.2542 222.458 35.2542 222.557 35.2542C222.854 35.2542 223.251 35.2542 223.647 35.1556L223.944 35.0569C224.142 34.9583 224.34 34.9583 224.538 34.8596C224.836 34.761 225.133 34.5637 225.43 34.465C225.727 34.3664 226.223 34.0704 226.223 34.0704L226.322 33.9718C226.421 33.8731 226.52 33.8731 226.619 33.7745L226.817 33.6758V33.9718C226.817 34.3664 226.817 34.761 226.916 35.1556V35.5502C227.015 36.1421 227.015 36.8327 227.313 37.4246C227.511 38.0165 228.105 38.4111 228.799 38.4111C228.997 38.4111 229.195 38.4111 229.492 38.3124C229.888 38.1151 230.087 38.0165 230.186 37.7205C230.285 37.4246 230.186 37.03 229.789 36.438C229.591 36.1421 229.591 35.7475 229.492 35.3529C229.294 34.1691 229.393 32.6893 229.591 31.6041C230.78 24.6985 233.158 19.3713 235.536 14.2414L235.734 13.6495C235.932 13.2549 236.824 12.959 237.22 12.959H237.616C238.211 12.959 238.904 12.959 239.498 13.0576C240.093 13.0576 240.687 13.1563 241.282 13.1563H242.966C244.749 13.1563 246.731 13.1563 248.811 13.0576C249.109 13.0576 249.505 12.8603 249.703 12.5644L250 12.2684V12.1697ZM203.733 27.7567C204.724 25.8823 207.3 23.8106 208.984 23.5147H209.182L209.083 23.6133C208.291 25.4877 206.606 26.3756 204.922 27.1648C204.526 27.3621 204.129 27.5594 203.832 27.7567L203.535 27.8554L203.733 27.7567Z" fill="#231F20"/>
<path d="M97.6251 44.5276L97.4269 44.3303C93.0677 40.9761 88.9067 37.1287 84.7456 32.4921C84.2502 31.9002 83.6558 31.3082 83.1604 30.7163L82.3679 29.8285L82.9623 29.6312C83.4577 29.4339 84.0521 29.2366 84.6465 29.1379C88.6095 28.0527 92.2751 26.1784 95.6436 23.5148C99.1112 20.8512 101.687 18.2862 103.569 15.7213C104.758 14.0442 105.65 12.3671 106.244 10.8874C107.631 7.13859 105.848 3.68579 101.489 1.8114C100.696 1.51545 99.8047 1.21949 98.913 0.92354C95.6436 0.0356752 91.9779 -0.161628 87.5197 0.232978C80.6836 0.824888 75.1355 2.50197 70.5782 5.36286C63.7422 9.70354 60.5718 14.7348 60.77 20.7525C60.869 22.3309 61.0672 24.008 62.0579 25.4878C62.4542 25.9811 63.0486 26.573 63.7422 26.9676C64.0394 27.1649 64.832 26.9676 65.0301 26.8689L65.1292 26.7703V26.6716C65.2282 26.277 64.931 25.6851 64.931 25.5865C64.7329 25.2905 64.5347 24.9945 64.3366 24.6986C63.9403 24.2053 63.6431 23.7121 63.544 23.2188C63.2468 21.4431 63.1477 19.8647 63.2468 18.3849C63.6431 15.0307 65.4264 12.0712 68.8939 9.21028C74.7392 4.475 81.9716 2.20601 91.0863 2.20601C92.1761 2.20601 93.365 2.20601 94.5538 2.30466C96.7334 2.40331 98.814 2.89657 100.597 3.78444C102.975 4.86961 104.065 6.54668 103.966 8.81567C103.867 10.2954 103.272 11.6766 102.182 13.3536C99.6066 17.0038 96.3371 20.2593 92.1761 23.1202C89.6993 24.8959 86.8261 26.1784 83.6558 27.1649C82.0706 27.6581 80.7827 28.0527 79.5938 28.546C79.1975 28.7433 78.8012 29.2366 78.8012 29.6312V29.7298V29.8285C78.8012 30.0258 78.9994 30.2231 79.3957 30.519C79.4947 30.6177 79.5938 30.6177 79.6929 30.7163C79.792 30.815 79.891 30.9136 80.0892 31.0123C80.2873 31.1109 80.3864 31.2096 80.4855 31.3082C81.0799 31.9988 81.7734 32.6894 82.3679 33.4786C83.3586 34.5638 84.3493 35.6489 85.34 36.7341C89.0057 40.6802 92.2751 43.5411 95.6436 45.9087C96.0399 46.2046 96.5353 46.5006 97.1297 46.6979C97.2288 46.6979 97.3279 46.6979 97.526 46.6979C97.8232 46.6979 98.2195 46.5993 98.4177 46.402C98.6158 46.106 98.4177 45.6127 98.3186 45.3168C98.1205 44.9222 97.8232 44.7249 97.6251 44.5276Z" fill="#231F20"/>
<path d="M81.4769 8.71694C81.675 8.32233 81.8731 7.82907 81.9722 7.33582C82.0713 7.03986 81.8731 6.74391 81.675 6.44795L81.4769 6.05334L80.9815 6.25065C80.6843 6.3493 80.288 6.44795 80.0898 6.64525C79.7926 7.03986 79.5945 7.43447 79.3963 7.82907L79.2972 8.12503C74.938 17.4969 71.2723 27.7567 67.3094 41.272C67.2103 41.4693 67.2104 41.6666 67.1113 41.9625L67.0122 42.4558L67.3094 42.7518C67.5076 42.9491 67.8048 43.1464 68.102 43.245H68.2011C68.5974 43.245 69.1918 42.9491 69.2909 42.6531C69.5881 42.2585 69.6872 41.7652 69.7862 41.3706L69.8853 41.0747C73.3529 29.2365 77.0186 18.8781 81.2787 9.30885C81.3778 9.01289 81.3778 8.91424 81.4769 8.71694Z" fill="#231F20"/>
<path d="M236.952 39.112C236.589 39.112 236.28 38.9893 236.024 38.744C235.768 38.488 235.64 38.168 235.64 37.784C235.64 37.3893 235.763 37.0693 236.008 36.824C236.264 36.5787 236.579 36.456 236.952 36.456C237.325 36.456 237.635 36.5787 237.88 36.824C238.136 37.0693 238.264 37.3893 238.264 37.784C238.264 38.168 238.136 38.488 237.88 38.744C237.624 38.9893 237.315 39.112 236.952 39.112ZM244.142 39.112C243.257 39.112 242.462 38.9253 241.758 38.552C241.054 38.1787 240.505 37.6613 240.11 37C239.715 36.328 239.518 35.5707 239.518 34.728C239.518 33.8853 239.715 33.1333 240.11 32.472C240.505 31.8107 241.049 31.2933 241.742 30.92C242.446 30.5467 243.246 30.36 244.142 30.36C244.985 30.36 245.721 30.5307 246.35 30.872C246.99 31.2133 247.47 31.704 247.79 32.344L246.254 33.24C246.009 32.8453 245.699 32.552 245.326 32.36C244.963 32.1573 244.563 32.056 244.126 32.056C243.379 32.056 242.761 32.3013 242.27 32.792C241.779 33.272 241.534 33.9173 241.534 34.728C241.534 35.5387 241.774 36.1893 242.254 36.68C242.745 37.16 243.369 37.4 244.126 37.4C244.563 37.4 244.963 37.304 245.326 37.112C245.699 36.9093 246.009 36.6107 246.254 36.216L247.79 37.112C247.459 37.752 246.974 38.248 246.334 38.6C245.705 38.9413 244.974 39.112 244.142 39.112ZM253.394 39.112C252.53 39.112 251.751 38.9253 251.058 38.552C250.365 38.1787 249.821 37.6613 249.426 37C249.042 36.328 248.85 35.5707 248.85 34.728C248.85 33.8853 249.042 33.1333 249.426 32.472C249.821 31.8107 250.365 31.2933 251.058 30.92C251.751 30.5467 252.53 30.36 253.394 30.36C254.269 30.36 255.053 30.5467 255.746 30.92C256.439 31.2933 256.978 31.8107 257.362 32.472C257.757 33.1333 257.954 33.8853 257.954 34.728C257.954 35.5707 257.757 36.328 257.362 37C256.978 37.6613 256.439 38.1787 255.746 38.552C255.053 38.9253 254.269 39.112 253.394 39.112ZM253.394 37.4C254.13 37.4 254.738 37.1547 255.218 36.664C255.698 36.1733 255.938 35.528 255.938 34.728C255.938 33.928 255.698 33.2827 255.218 32.792C254.738 32.3013 254.13 32.056 253.394 32.056C252.658 32.056 252.05 32.3013 251.57 32.792C251.101 33.2827 250.866 33.928 250.866 34.728C250.866 35.528 251.101 36.1733 251.57 36.664C252.05 37.1547 252.658 37.4 253.394 37.4ZM270.81 30.36C271.888 30.36 272.741 30.6747 273.37 31.304C274 31.9227 274.314 32.856 274.314 34.104V39H272.314V34.36C272.314 33.6133 272.149 33.0533 271.818 32.68C271.488 32.296 271.013 32.104 270.394 32.104C269.722 32.104 269.184 32.328 268.778 32.776C268.373 33.2133 268.17 33.8427 268.17 34.664V39H266.17V34.36C266.17 33.6133 266.005 33.0533 265.674 32.68C265.344 32.296 264.869 32.104 264.25 32.104C263.568 32.104 263.024 32.3227 262.618 32.76C262.224 33.1973 262.026 33.832 262.026 34.664V39H260.026V30.456H261.93V31.544C262.25 31.16 262.65 30.8667 263.13 30.664C263.61 30.4613 264.144 30.36 264.73 30.36C265.37 30.36 265.936 30.4827 266.426 30.728C266.928 30.9627 267.322 31.3147 267.61 31.784C267.962 31.336 268.416 30.9893 268.97 30.744C269.525 30.488 270.138 30.36 270.81 30.36Z" fill="black"/>
</svg>
