<?xml version="1.0" encoding="UTF-8"?>
<svg viewBox="0 0 63 60" xmlns="http://www.w3.org/2000/svg" aria-labelledby="title">
  <title>Thumb</title>
  <desc>Thumb for star rating</desc>
  <g id="Symbols" stroke="none" stroke-width="1" fill="none" fill-rule="evenodd">
    <g id="Footer/Large" transform="translate(-263 -208)" fill="#FFF" fill-rule="nonzero">
      <g id="Group-5">
        <path d="M265.476 229h8.048c1.27 0 2.316.98 2.46 2.242l.016.296v27.924c0 1.301-.956 2.374-2.187 2.52l-.29.018h-8.047c-1.27 0-2.316-.98-2.46-2.242l-.016-.296v-27.924l.017-.296c.132-1.165 1.034-2.09 2.17-2.225l.29-.017h8.047-8.048zm29.609-20.954l.279-.03c2.439-.195 5.44 1.412 6.883 6.56.498 3.5.147 7.062-1.018 10.391l-.308.828-.024.097-.008.1c0 .301.209.554.49.62l.147.018h16.097a6.372 6.372 0 016.363 5.945l.014.419-.016.457a6.363 6.363 0 01-2.838 4.849l-.39.238.07.135a5.722 5.722 0 01-2.158 7.503l-.358.198.166.37a5.726 5.726 0 01-2.345 7.061l-.372.206.21.482a5.71 5.71 0 01.356 1.526l.023.525-.013.37c-.11 1.607-1.015 3.9-5.207 4.075l-.519.01h-16.58a44.367 44.367 0 01-9.187-.912l-1.291-.287-1.923-.394-.595-.115a1.274 1.274 0 01-1.013-1.025l-.02-.224v-25.753c0-.335.132-.653.361-.889l.19-.16c4.86-3.348 10.29-10.985 10.29-17.975a5.093 5.093 0 013.85-5.137l.394-.082.279-.03-.279.03z" id="thumb" fill="#C0A574"/>
      </g>
    </g>
  </g>
</svg>
