<svg width="144" height="29" viewBox="0 0 144 29" fill="none" xmlns="http://www.w3.org/2000/svg">
<g clip-path="url(#clip0_389_1601)">
<path d="M7.10722 28.7509C6.64961 28.7509 6.19613 28.6066 5.79624 28.318C5.00058 27.7408 4.68314 26.7638 4.98821 25.828L7.50298 18.0899L0.923349 13.3077C0.127692 12.7305 -0.189747 11.7535 0.115324 10.8176C0.420395 9.88182 1.24903 9.27992 2.23433 9.27992H10.3682L12.8829 1.53772C13.188 0.601896 14.0167 0 15.002 0C15.9872 0 16.8159 0.601896 17.121 1.53772L19.6357 9.2758H27.7696C28.7508 9.2758 29.5835 9.88182 29.8886 10.8135C30.1937 11.7493 29.8762 12.7264 29.0806 13.3036L22.4968 18.0858L25.0116 25.8238C25.3166 26.7597 24.9992 27.7367 24.2035 28.3139C23.4079 28.891 22.3814 28.891 21.5857 28.3139L15.0061 23.5317L8.42232 28.3139C8.02655 28.6024 7.56895 28.7467 7.11134 28.7467L7.10722 28.7509ZM2.23021 10.9248C1.83856 10.9248 1.71076 11.2299 1.6819 11.3247C1.65305 11.4195 1.57472 11.7411 1.89216 11.972L8.75212 16.9562C9.16438 17.2571 9.33753 17.7848 9.17675 18.2671L6.55479 26.335C6.43524 26.7061 6.68671 26.9246 6.76504 26.9823C6.84337 27.04 7.13195 27.2131 7.44527 26.9823L14.3052 21.9981C14.7175 21.6971 15.274 21.6971 15.6863 21.9981L22.5463 26.9823C22.8637 27.2131 23.1482 27.04 23.2265 26.9823C23.3048 26.9246 23.5563 26.7061 23.4367 26.335L20.8148 18.2671C20.6581 17.7807 20.8272 17.2571 21.2394 16.9562L28.1035 11.972C28.4209 11.7411 28.3426 11.4195 28.3138 11.3247C28.2849 11.2299 28.153 10.9248 27.7613 10.9248H19.2812C18.77 10.9248 18.3248 10.5991 18.164 10.1168L15.542 2.04892C15.4225 1.67789 15.0885 1.64903 14.9937 1.64903C14.8989 1.64903 14.565 1.67789 14.4454 2.04892L11.8234 10.1168C11.6668 10.6033 11.2174 10.929 10.7062 10.929H2.23021V10.9248Z" fill="#C0A574"/>
</g>
<g clip-path="url(#clip1_389_1601)">
<path d="M45.1072 28.7509C44.6496 28.7509 44.1961 28.6066 43.7962 28.318C43.0006 27.7408 42.6831 26.7638 42.9882 25.828L45.503 18.0899L38.9233 13.3077C38.1277 12.7305 37.8103 11.7535 38.1153 10.8176C38.4204 9.88182 39.249 9.27992 40.2343 9.27992H48.3682L50.8829 1.53772C51.188 0.601896 52.0167 0 53.002 0C53.9872 0 54.8159 0.601896 55.121 1.53772L57.6357 9.2758H65.7696C66.7508 9.2758 67.5835 9.88182 67.8886 10.8135C68.1937 11.7493 67.8762 12.7264 67.0806 13.3036L60.4968 18.0858L63.0116 25.8238C63.3166 26.7597 62.9992 27.7367 62.2035 28.3139C61.4079 28.891 60.3814 28.891 59.5857 28.3139L53.0061 23.5317L46.4223 28.3139C46.0266 28.6024 45.5689 28.7467 45.1113 28.7467L45.1072 28.7509ZM40.2302 10.9248C39.8386 10.9248 39.7108 11.2299 39.6819 11.3247C39.653 11.4195 39.5747 11.7411 39.8922 11.972L46.7521 16.9562C47.1644 17.2571 47.3375 17.7848 47.1768 18.2671L44.5548 26.335C44.4352 26.7061 44.6867 26.9246 44.765 26.9823C44.8434 27.04 45.132 27.2131 45.4453 26.9823L52.3052 21.9981C52.7175 21.6971 53.274 21.6971 53.6863 21.9981L60.5463 26.9823C60.8637 27.2131 61.1482 27.04 61.2265 26.9823C61.3048 26.9246 61.5563 26.7061 61.4367 26.335L58.8148 18.2671C58.6581 17.7807 58.8272 17.2571 59.2394 16.9562L66.1035 11.972C66.4209 11.7411 66.3426 11.4195 66.3138 11.3247C66.2849 11.2299 66.153 10.9248 65.7613 10.9248H57.2812C56.77 10.9248 56.3248 10.5991 56.164 10.1168L53.542 2.04892C53.4225 1.67789 53.0885 1.64903 52.9937 1.64903C52.8989 1.64903 52.565 1.67789 52.4454 2.04892L49.8234 10.1168C49.6668 10.6033 49.2174 10.929 48.7062 10.929H40.2302V10.9248Z" fill="#C0A574"/>
</g>
<g clip-path="url(#clip2_389_1601)">
<path d="M83.1072 28.7509C82.6496 28.7509 82.1961 28.6066 81.7962 28.318C81.0006 27.7408 80.6831 26.7638 80.9882 25.828L83.503 18.0899L76.9233 13.3077C76.1277 12.7305 75.8103 11.7535 76.1153 10.8176C76.4204 9.88182 77.249 9.27992 78.2343 9.27992H86.3682L88.8829 1.53772C89.188 0.601896 90.0167 0 91.002 0C91.9872 0 92.8159 0.601896 93.121 1.53772L95.6357 9.2758H103.77C104.751 9.2758 105.584 9.88182 105.889 10.8135C106.194 11.7493 105.876 12.7264 105.081 13.3036L98.4968 18.0858L101.012 25.8238C101.317 26.7597 100.999 27.7367 100.204 28.3139C99.4079 28.891 98.3814 28.891 97.5857 28.3139L91.0061 23.5317L84.4223 28.3139C84.0266 28.6024 83.5689 28.7467 83.1113 28.7467L83.1072 28.7509ZM78.2302 10.9248C77.8386 10.9248 77.7108 11.2299 77.6819 11.3247C77.653 11.4195 77.5747 11.7411 77.8922 11.972L84.7521 16.9562C85.1644 17.2571 85.3375 17.7848 85.1768 18.2671L82.5548 26.335C82.4352 26.7061 82.6867 26.9246 82.765 26.9823C82.8434 27.04 83.132 27.2131 83.4453 26.9823L90.3052 21.9981C90.7175 21.6971 91.274 21.6971 91.6863 21.9981L98.5463 26.9823C98.8637 27.2131 99.1482 27.04 99.2265 26.9823C99.3048 26.9246 99.5563 26.7061 99.4367 26.335L96.8148 18.2671C96.6581 17.7807 96.8272 17.2571 97.2394 16.9562L104.104 11.972C104.421 11.7411 104.343 11.4195 104.314 11.3247C104.285 11.2299 104.153 10.9248 103.761 10.9248H95.2812C94.77 10.9248 94.3248 10.5991 94.164 10.1168L91.542 2.04892C91.4225 1.67789 91.0885 1.64903 90.9937 1.64903C90.8989 1.64903 90.565 1.67789 90.4454 2.04892L87.8234 10.1168C87.6668 10.6033 87.2174 10.929 86.7062 10.929H78.2302V10.9248Z" fill="#C0A574"/>
</g>
<g clip-path="url(#clip3_389_1601)">
<path d="M121.107 28.7509C120.65 28.7509 120.196 28.6066 119.796 28.318C119.001 27.7408 118.683 26.7638 118.988 25.828L121.503 18.0899L114.923 13.3077C114.128 12.7305 113.81 11.7535 114.115 10.8176C114.42 9.88182 115.249 9.27992 116.234 9.27992H124.368L126.883 1.53772C127.188 0.601896 128.017 0 129.002 0C129.987 0 130.816 0.601896 131.121 1.53772L133.636 9.2758H141.77C142.751 9.2758 143.584 9.88182 143.889 10.8135C144.194 11.7493 143.876 12.7264 143.081 13.3036L136.497 18.0858L139.012 25.8238C139.317 26.7597 138.999 27.7367 138.204 28.3139C137.408 28.891 136.381 28.891 135.586 28.3139L129.006 23.5317L122.422 28.3139C122.027 28.6024 121.569 28.7467 121.111 28.7467L121.107 28.7509ZM116.23 10.9248C115.839 10.9248 115.711 11.2299 115.682 11.3247C115.653 11.4195 115.575 11.7411 115.892 11.972L122.752 16.9562C123.164 17.2571 123.338 17.7848 123.177 18.2671L120.555 26.335C120.435 26.7061 120.687 26.9246 120.765 26.9823C120.843 27.04 121.132 27.2131 121.445 26.9823L128.305 21.9981C128.717 21.6971 129.274 21.6971 129.686 21.9981L136.546 26.9823C136.864 27.2131 137.148 27.04 137.226 26.9823C137.305 26.9246 137.556 26.7061 137.437 26.335L134.815 18.2671C134.658 17.7807 134.827 17.2571 135.239 16.9562L142.104 11.972C142.421 11.7411 142.343 11.4195 142.314 11.3247C142.285 11.2299 142.153 10.9248 141.761 10.9248H133.281C132.77 10.9248 132.325 10.5991 132.164 10.1168L129.542 2.04892C129.422 1.67789 129.089 1.64903 128.994 1.64903C128.899 1.64903 128.565 1.67789 128.445 2.04892L125.823 10.1168C125.667 10.6033 125.217 10.929 124.706 10.929H116.23V10.9248Z" fill="#C0A574"/>
</g>
<defs>
<clipPath id="clip0_389_1601">
<rect width="30" height="28.7509" fill="white"/>
</clipPath>
<clipPath id="clip1_389_1601">
<rect width="30" height="28.7509" fill="white" transform="translate(38)"/>
</clipPath>
<clipPath id="clip2_389_1601">
<rect width="30" height="28.7509" fill="white" transform="translate(76)"/>
</clipPath>
<clipPath id="clip3_389_1601">
<rect width="30" height="28.7509" fill="white" transform="translate(114)"/>
</clipPath>
</defs>
</svg>
