<svg width="144" height="29" viewBox="0 0 144 29" fill="none" xmlns="http://www.w3.org/2000/svg">
<path d="M45.1072 28.7509C44.6496 28.7509 44.1961 28.6066 43.7962 28.318C43.0006 27.7408 42.6831 26.7638 42.9882 25.828L45.503 18.0899L38.9233 13.3077C38.1277 12.7305 37.8103 11.7535 38.1153 10.8176C38.4204 9.88182 39.249 9.27992 40.2343 9.27992H48.3682L50.8829 1.53772C51.188 0.601896 52.0167 0 53.002 0C53.9872 0 54.8159 0.601896 55.121 1.53772L57.6357 9.2758H65.7696C66.7508 9.2758 67.5835 9.88182 67.8886 10.8135C68.1937 11.7493 67.8762 12.7264 67.0806 13.3036L60.4968 18.0858L63.0116 25.8238C63.3166 26.7597 62.9992 27.7367 62.2035 28.3139C61.4079 28.891 60.3814 28.891 59.5857 28.3139L53.0061 23.5317L46.4223 28.3139C46.0266 28.6024 45.5689 28.7467 45.1113 28.7467L45.1072 28.7509Z" fill="#C0A574"/>
<path d="M7.10624 28.7509C6.64863 28.7509 6.19515 28.6066 5.79526 28.318C4.9996 27.7408 4.68216 26.7638 4.98723 25.828L7.50201 18.0899L0.922373 13.3077C0.126715 12.7305 -0.190723 11.7535 0.114347 10.8176C0.419418 9.88182 1.24806 9.27992 2.23335 9.27992H10.3672L12.882 1.53772C13.187 0.601896 14.0157 0 15.001 0C15.9863 0 16.8149 0.601896 17.12 1.53772L19.6348 9.2758H27.7686C28.7498 9.2758 29.5825 9.88182 29.8876 10.8135C30.1927 11.7493 29.8752 12.7264 29.0796 13.3036L22.4958 18.0858L25.0106 25.8238C25.3157 26.7597 24.9982 27.7367 24.2026 28.3139C23.4069 28.891 22.3804 28.891 21.5847 28.3139L15.0051 23.5317L8.42134 28.3139C8.02557 28.6024 7.56797 28.7467 7.11036 28.7467L7.10624 28.7509Z" fill="#C0A574"/>
<path d="M83.1062 28.7509C82.6486 28.7509 82.1952 28.6066 81.7953 28.318C80.9996 27.7408 80.6822 26.7638 80.9872 25.828L83.502 18.0899L76.9224 13.3077C76.1267 12.7305 75.8093 11.7535 76.1143 10.8176C76.4194 9.88182 77.2481 9.27992 78.2334 9.27992H86.3672L88.882 1.53772C89.187 0.601896 90.0157 0 91.001 0C91.9863 0 92.8149 0.601896 93.12 1.53772L95.6348 9.2758H103.769C104.75 9.2758 105.583 9.88182 105.888 10.8135C106.193 11.7493 105.875 12.7264 105.08 13.3036L98.4958 18.0858L101.011 25.8238C101.316 26.7597 100.998 27.7367 100.203 28.3139C99.4069 28.891 98.3804 28.891 97.5847 28.3139L91.0051 23.5317L84.4213 28.3139C84.0256 28.6024 83.568 28.7467 83.1104 28.7467L83.1062 28.7509Z" fill="#C0A574"/>
<path d="M121.106 28.7509C120.649 28.7509 120.195 28.6066 119.795 28.318C119 27.7408 118.682 26.7638 118.987 25.828L121.502 18.0899L114.922 13.3077C114.127 12.7305 113.809 11.7535 114.114 10.8176C114.419 9.88182 115.248 9.27992 116.233 9.27992H124.367L126.882 1.53772C127.187 0.601896 128.016 0 129.001 0C129.986 0 130.815 0.601896 131.12 1.53772L133.635 9.2758H141.769C142.75 9.2758 143.583 9.88182 143.888 10.8135C144.193 11.7493 143.875 12.7264 143.08 13.3036L136.496 18.0858L139.011 25.8238C139.316 26.7597 138.998 27.7367 138.203 28.3139C137.407 28.891 136.38 28.891 135.585 28.3139L129.005 23.5317L122.421 28.3139C122.026 28.6024 121.568 28.7467 121.11 28.7467L121.106 28.7509Z" fill="#C0A574"/>
</svg>
