<svg width="144" height="30" viewBox="0 0 144 30" fill="none" xmlns="http://www.w3.org/2000/svg">
<mask id="mask0_395_1632" style="mask-type:luminance" maskUnits="userSpaceOnUse" x="0" y="0" width="30" height="30">
<path d="M30 0.5H0V29.2509H30V0.5Z" fill="white"/>
</mask>
<g mask="url(#mask0_395_1632)">
<path d="M7.10722 29.2509C6.64961 29.2509 6.19613 29.1066 5.79624 28.818C5.00058 28.2408 4.68314 27.2638 4.98821 26.328L7.50298 18.5899L0.923349 13.8077C0.127692 13.2305 -0.189747 12.2535 0.115324 11.3176C0.420395 10.3818 1.24903 9.77992 2.23433 9.77992H10.3682L12.8829 2.03772C13.188 1.1019 14.0167 0.5 15.002 0.5C15.9872 0.5 16.8159 1.1019 17.121 2.03772L19.6357 9.7758H27.7696C28.7508 9.7758 29.5835 10.3818 29.8886 11.3135C30.1937 12.2493 29.8762 13.2264 29.0806 13.8036L22.4968 18.5858L25.0116 26.3238C25.3166 27.2597 24.9992 28.2367 24.2035 28.8139C23.4079 29.391 22.3814 29.391 21.5857 28.8139L15.0061 24.0317L8.42232 28.8139C8.02655 29.1024 7.56895 29.2467 7.11134 29.2467L7.10722 29.2509ZM2.23021 11.4248C1.83856 11.4248 1.71076 11.7299 1.6819 11.8247C1.65305 11.9195 1.57472 12.2411 1.89216 12.472L8.75212 17.4562C9.16438 17.7571 9.33753 18.2848 9.17675 18.7671L6.55479 26.835C6.43524 27.2061 6.68671 27.4246 6.76504 27.4823C6.84337 27.54 7.13195 27.7131 7.44527 27.4823L14.3052 22.4981C14.7175 22.1971 15.274 22.1971 15.6863 22.4981L22.5463 27.4823C22.8637 27.7131 23.1482 27.54 23.2265 27.4823C23.3048 27.4246 23.5563 27.2061 23.4367 26.835L20.8148 18.7671C20.6581 18.2807 20.8272 17.7571 21.2394 17.4562L28.1035 12.472C28.4209 12.2411 28.3426 11.9195 28.3138 11.8247C28.2849 11.7299 28.153 11.4248 27.7613 11.4248H19.2812C18.77 11.4248 18.3248 11.0991 18.164 10.6168L15.542 2.54892C15.4225 2.17789 15.0885 2.14903 14.9937 2.14903C14.8989 2.14903 14.565 2.17789 14.4454 2.54892L11.8234 10.6168C11.6668 11.1033 11.2174 11.429 10.7062 11.429H2.23021V11.4248Z" fill="white"/>
</g>
<mask id="mask1_395_1632" style="mask-type:luminance" maskUnits="userSpaceOnUse" x="38" y="0" width="30" height="30">
<path d="M68 0.5H38V29.2509H68V0.5Z" fill="white"/>
</mask>
<g mask="url(#mask1_395_1632)">
<path d="M45.1072 29.2509C44.6496 29.2509 44.1961 29.1066 43.7962 28.818C43.0006 28.2408 42.6831 27.2638 42.9882 26.328L45.503 18.5899L38.9233 13.8077C38.1277 13.2305 37.8103 12.2535 38.1153 11.3176C38.4204 10.3818 39.249 9.77992 40.2343 9.77992H48.3682L50.8829 2.03772C51.188 1.1019 52.0167 0.5 53.002 0.5C53.9872 0.5 54.8159 1.1019 55.121 2.03772L57.6357 9.7758H65.7696C66.7508 9.7758 67.5835 10.3818 67.8886 11.3135C68.1937 12.2493 67.8762 13.2264 67.0806 13.8036L60.4968 18.5858L63.0116 26.3238C63.3166 27.2597 62.9992 28.2367 62.2035 28.8139C61.4079 29.391 60.3814 29.391 59.5857 28.8139L53.0061 24.0317L46.4223 28.8139C46.0266 29.1024 45.5689 29.2467 45.1113 29.2467L45.1072 29.2509ZM40.2302 11.4248C39.8386 11.4248 39.7108 11.7299 39.6819 11.8247C39.653 11.9195 39.5747 12.2411 39.8922 12.472L46.7521 17.4562C47.1644 17.7571 47.3375 18.2848 47.1768 18.7671L44.5548 26.835C44.4352 27.2061 44.6867 27.4246 44.765 27.4823C44.8434 27.54 45.132 27.7131 45.4453 27.4823L52.3052 22.4981C52.7175 22.1971 53.274 22.1971 53.6863 22.4981L60.5463 27.4823C60.8637 27.7131 61.1482 27.54 61.2265 27.4823C61.3048 27.4246 61.5563 27.2061 61.4367 26.835L58.8148 18.7671C58.6581 18.2807 58.8272 17.7571 59.2394 17.4562L66.1035 12.472C66.4209 12.2411 66.3426 11.9195 66.3138 11.8247C66.2849 11.7299 66.153 11.4248 65.7613 11.4248H57.2812C56.77 11.4248 56.3248 11.0991 56.164 10.6168L53.542 2.54892C53.4225 2.17789 53.0885 2.14903 52.9937 2.14903C52.8989 2.14903 52.565 2.17789 52.4454 2.54892L49.8234 10.6168C49.6668 11.1033 49.2174 11.429 48.7062 11.429H40.2302V11.4248Z" fill="white"/>
</g>
<mask id="mask2_395_1632" style="mask-type:luminance" maskUnits="userSpaceOnUse" x="76" y="0" width="30" height="30">
<path d="M106 0.5H76V29.2509H106V0.5Z" fill="white"/>
</mask>
<g mask="url(#mask2_395_1632)">
<path d="M83.1072 29.2509C82.6496 29.2509 82.1961 29.1066 81.7962 28.818C81.0006 28.2408 80.6831 27.2638 80.9882 26.328L83.503 18.5899L76.9233 13.8077C76.1277 13.2305 75.8103 12.2535 76.1153 11.3176C76.4204 10.3818 77.249 9.77992 78.2343 9.77992H86.3682L88.8829 2.03772C89.188 1.1019 90.0167 0.5 91.002 0.5C91.9872 0.5 92.8159 1.1019 93.121 2.03772L95.6357 9.7758H103.77C104.751 9.7758 105.584 10.3818 105.889 11.3135C106.194 12.2493 105.876 13.2264 105.081 13.8036L98.4968 18.5858L101.012 26.3238C101.317 27.2597 100.999 28.2367 100.204 28.8139C99.4079 29.391 98.3814 29.391 97.5857 28.8139L91.0061 24.0317L84.4223 28.8139C84.0266 29.1024 83.5689 29.2467 83.1113 29.2467L83.1072 29.2509ZM78.2302 11.4248C77.8386 11.4248 77.7108 11.7299 77.6819 11.8247C77.653 11.9195 77.5747 12.2411 77.8922 12.472L84.7521 17.4562C85.1644 17.7571 85.3375 18.2848 85.1768 18.7671L82.5548 26.835C82.4352 27.2061 82.6867 27.4246 82.765 27.4823C82.8434 27.54 83.132 27.7131 83.4453 27.4823L90.3052 22.4981C90.7175 22.1971 91.274 22.1971 91.6863 22.4981L98.5463 27.4823C98.8637 27.7131 99.1482 27.54 99.2265 27.4823C99.3048 27.4246 99.5563 27.2061 99.4367 26.835L96.8148 18.7671C96.6581 18.2807 96.8272 17.7571 97.2394 17.4562L104.104 12.472C104.421 12.2411 104.343 11.9195 104.314 11.8247C104.285 11.7299 104.153 11.4248 103.761 11.4248H95.2812C94.77 11.4248 94.3248 11.0991 94.164 10.6168L91.542 2.54892C91.4225 2.17789 91.0885 2.14903 90.9937 2.14903C90.8989 2.14903 90.565 2.17789 90.4454 2.54892L87.8234 10.6168C87.6668 11.1033 87.2174 11.429 86.7062 11.429H78.2302V11.4248Z" fill="white"/>
</g>
<mask id="mask3_395_1632" style="mask-type:luminance" maskUnits="userSpaceOnUse" x="114" y="0" width="30" height="30">
<path d="M144 0.5H114V29.2509H144V0.5Z" fill="white"/>
</mask>
<g mask="url(#mask3_395_1632)">
<path d="M121.107 29.2509C120.65 29.2509 120.196 29.1066 119.796 28.818C119.001 28.2408 118.683 27.2638 118.988 26.328L121.503 18.5899L114.923 13.8077C114.128 13.2305 113.81 12.2535 114.115 11.3176C114.42 10.3818 115.249 9.77992 116.234 9.77992H124.368L126.883 2.03772C127.188 1.1019 128.017 0.5 129.002 0.5C129.987 0.5 130.816 1.1019 131.121 2.03772L133.636 9.7758H141.77C142.751 9.7758 143.584 10.3818 143.889 11.3135C144.194 12.2493 143.876 13.2264 143.081 13.8036L136.497 18.5858L139.012 26.3238C139.317 27.2597 138.999 28.2367 138.204 28.8139C137.408 29.391 136.381 29.391 135.586 28.8139L129.006 24.0317L122.422 28.8139C122.027 29.1024 121.569 29.2467 121.111 29.2467L121.107 29.2509ZM116.23 11.4248C115.839 11.4248 115.711 11.7299 115.682 11.8247C115.653 11.9195 115.575 12.2411 115.892 12.472L122.752 17.4562C123.164 17.7571 123.338 18.2848 123.177 18.7671L120.555 26.835C120.435 27.2061 120.687 27.4246 120.765 27.4823C120.843 27.54 121.132 27.7131 121.445 27.4823L128.305 22.4981C128.717 22.1971 129.274 22.1971 129.686 22.4981L136.546 27.4823C136.864 27.7131 137.148 27.54 137.226 27.4823C137.305 27.4246 137.556 27.2061 137.437 26.835L134.815 18.7671C134.658 18.2807 134.827 17.7571 135.239 17.4562L142.104 12.472C142.421 12.2411 142.343 11.9195 142.314 11.8247C142.285 11.7299 142.153 11.4248 141.761 11.4248H133.281C132.77 11.4248 132.325 11.0991 132.164 10.6168L129.542 2.54892C129.422 2.17789 129.089 2.14903 128.994 2.14903C128.899 2.14903 128.565 2.17789 128.445 2.54892L125.823 10.6168C125.667 11.1033 125.217 11.429 124.706 11.429H116.23V11.4248Z" fill="white"/>
</g>
</svg>
