<svg width="144" height="30" viewBox="0 0 144 30" fill="none" xmlns="http://www.w3.org/2000/svg">
<path d="M45.1072 29.2509C44.6496 29.2509 44.1961 29.1066 43.7962 28.818C43.0006 28.2408 42.6831 27.2638 42.9882 26.328L45.503 18.5899L38.9233 13.8077C38.1277 13.2305 37.8103 12.2535 38.1153 11.3176C38.4204 10.3818 39.249 9.77992 40.2343 9.77992H48.3682L50.8829 2.03772C51.188 1.1019 52.0167 0.5 53.002 0.5C53.9872 0.5 54.8159 1.1019 55.121 2.03772L57.6357 9.7758H65.7696C66.7508 9.7758 67.5835 10.3818 67.8886 11.3135C68.1937 12.2493 67.8762 13.2264 67.0806 13.8036L60.4968 18.5858L63.0116 26.3238C63.3166 27.2597 62.9992 28.2367 62.2035 28.8139C61.4079 29.391 60.3814 29.391 59.5857 28.8139L53.0061 24.0317L46.4223 28.8139C46.0266 29.1024 45.5689 29.2467 45.1113 29.2467L45.1072 29.2509Z" fill="white"/>
<path d="M7.10624 29.7509C6.64863 29.7509 6.19515 29.6066 5.79526 29.318C4.9996 28.7408 4.68216 27.7638 4.98723 26.828L7.50201 19.0899L0.922373 14.3077C0.126715 13.7305 -0.190723 12.7535 0.114347 11.8176C0.419418 10.8818 1.24806 10.2799 2.23335 10.2799H10.3672L12.882 2.53772C13.187 1.6019 14.0157 1 15.001 1C15.9863 1 16.8149 1.6019 17.12 2.53772L19.6348 10.2758H27.7686C28.7498 10.2758 29.5825 10.8818 29.8876 11.8135C30.1927 12.7493 29.8752 13.7264 29.0796 14.3036L22.4958 19.0858L25.0106 26.8238C25.3157 27.7597 24.9982 28.7367 24.2026 29.3139C23.4069 29.891 22.3804 29.891 21.5847 29.3139L15.0051 24.5317L8.42134 29.3139C8.02557 29.6024 7.56797 29.7467 7.11036 29.7467L7.10624 29.7509Z" fill="white"/>
<path d="M83.1062 29.2509C82.6486 29.2509 82.1952 29.1066 81.7953 28.818C80.9996 28.2408 80.6822 27.2638 80.9872 26.328L83.502 18.5899L76.9224 13.8077C76.1267 13.2305 75.8093 12.2535 76.1143 11.3176C76.4194 10.3818 77.2481 9.77992 78.2334 9.77992H86.3672L88.882 2.03772C89.187 1.1019 90.0157 0.5 91.001 0.5C91.9863 0.5 92.8149 1.1019 93.12 2.03772L95.6348 9.7758H103.769C104.75 9.7758 105.583 10.3818 105.888 11.3135C106.193 12.2493 105.875 13.2264 105.08 13.8036L98.4958 18.5858L101.011 26.3238C101.316 27.2597 100.998 28.2367 100.203 28.8139C99.4069 29.391 98.3804 29.391 97.5847 28.8139L91.0051 24.0317L84.4213 28.8139C84.0256 29.1024 83.568 29.2467 83.1104 29.2467L83.1062 29.2509Z" fill="white"/>
<path d="M121.106 29.2509C120.649 29.2509 120.195 29.1066 119.795 28.818C119 28.2408 118.682 27.2638 118.987 26.328L121.502 18.5899L114.922 13.8077C114.127 13.2305 113.809 12.2535 114.114 11.3176C114.419 10.3818 115.248 9.77992 116.233 9.77992H124.367L126.882 2.03772C127.187 1.1019 128.016 0.5 129.001 0.5C129.986 0.5 130.815 1.1019 131.12 2.03772L133.635 9.7758H141.769C142.75 9.7758 143.583 10.3818 143.888 11.3135C144.193 12.2493 143.875 13.2264 143.08 13.8036L136.496 18.5858L139.011 26.3238C139.316 27.2597 138.998 28.2367 138.203 28.8139C137.407 29.391 136.38 29.391 135.585 28.8139L129.005 24.0317L122.421 28.8139C122.026 29.1024 121.568 29.2467 121.11 29.2467L121.106 29.2509Z" fill="white"/>
</svg>
