<svg width="84" height="90" viewBox="0 0 84 90" fill="none" xmlns="http://www.w3.org/2000/svg">
<g clip-path="url(#clip0_85_283)">
<path fill-rule="evenodd" clip-rule="evenodd" d="M64.1601 35.7513C63.1371 35.1674 60.5613 34.9774 55.8089 35.1391L55.5596 35.1476C54.0633 35.1957 52.7598 35.3146 51.7114 35.4112C51.3772 35.4424 51.0227 35.4763 50.7195 35.499C50.9208 34.8779 51.2155 33.8376 51.6402 32.0267C52.329 29.0896 52.0739 27.5079 51.8307 25.9767C51.7765 25.6513 51.7255 25.3278 51.6831 24.9878C51.4394 22.9892 50.5069 20.3643 49.7847 19.0797C48.7872 17.3023 46.0865 17.0335 45.97 17.0217C45.3836 16.9651 44.3352 16.9736 43.8902 17.6258C43.678 17.9347 43.5927 18.4563 43.5135 19.9616L43.505 20.1201C43.4904 20.3299 43.4654 20.9878 43.431 21.8069C43.3834 22.9298 43.3235 24.3582 43.2721 25.3476C43.1877 27.026 42.0823 29.2056 41.609 30.062C41.212 30.7845 40.0986 32.3582 39.2033 33.6192C38.6622 34.3851 38.1973 35.0453 37.9904 35.3683C37.2309 36.5676 35.7832 36.8368 35.168 36.8651C34.9615 36.8736 35.0035 37.075 35.0035 37.075L35.0657 38.0955C35.0657 38.0955 35.0747 38.3535 35.3071 38.3337C36.2136 38.2459 38.1775 37.8918 39.2854 36.1427C39.4838 35.8305 39.934 35.1957 40.4559 34.4586C41.3709 33.1632 42.5103 31.5532 42.9497 30.7595C43.5955 29.5829 44.692 27.3264 44.7915 25.4183C44.8396 24.4261 44.8995 22.992 44.9471 21.8668C44.981 21.0585 45.0098 20.4096 45.0206 20.1998L45.0296 20.038C45.072 19.2358 45.1201 18.7114 45.1427 18.5157C45.2705 18.4874 45.5109 18.462 45.8286 18.4903C46.4801 18.5525 47.9825 18.9468 48.453 19.7857C49.1101 20.9567 49.9573 23.3971 50.1755 25.1632C50.218 25.5207 50.2745 25.8607 50.3283 26.2035C50.5635 27.6607 50.7846 29.0387 50.1586 31.7003C49.4048 34.9236 49.096 35.5555 48.9767 35.7965C48.8608 36.0375 48.8886 36.3978 49.0451 36.6128C49.4048 37.1089 49.9233 37.0608 51.8533 36.8821C52.8815 36.7859 54.1628 36.6699 55.6105 36.6246L55.8627 36.6157C61.457 36.4261 62.9811 36.7916 63.3921 37.0241C64.2991 37.5428 64.7187 37.8687 64.3585 39.5753C64.2624 39.9073 64.1686 40.2191 64.0747 40.5393C63.939 40.8793 63.7829 41.0976 63.534 41.2448C63.1993 41.4263 62.6977 41.4862 61.8162 41.4947C61.2981 41.4999 60.7993 41.506 60.3572 41.5117C60.1361 41.5173 59.7962 41.5485 59.626 41.8008C59.4275 42.0927 59.3483 42.3535 59.2295 42.6256C59.1074 42.9062 59.2206 43 59.5072 43C60.0427 42.9915 60.9181 42.9769 61.8308 42.9684C62.9047 42.9599 63.667 42.8439 64.2393 42.5577C64.2393 42.5577 64.4604 42.4412 64.7861 42.1634C65.1123 41.8885 65.4607 41.2509 65.7101 40.4596C65.727 40.403 65.7954 40.0601 65.8289 39.9408C65.8322 39.9323 65.8289 39.9238 65.8322 39.9158C65.835 39.9073 65.8402 39.9012 65.8402 39.8899C66.3479 37.5202 65.6078 36.5761 64.1601 35.7513Z" fill="#B69D75"/>
<path fill-rule="evenodd" clip-rule="evenodd" d="M63.4955 50.0288C63.1371 50.0976 62.6686 50.2012 62.3993 50.2971C62.2407 50.356 62.1395 50.4867 62.0599 50.6296C61.9303 50.92 61.8702 51.1023 61.7406 51.3779C61.7374 51.3878 61.7279 51.3927 61.7248 51.4025C61.6837 51.5012 61.6452 51.5823 61.6073 51.6659C61.5756 51.7326 61.5472 51.7891 61.5156 51.8555C61.1572 52.5423 60.714 52.6779 58.9497 52.6902C58.3668 52.6951 57.8093 52.7 57.315 52.7074C57.0678 52.7099 56.691 52.7369 56.4976 52.956C56.2763 53.2095 56.1872 53.436 56.0544 53.6723C55.9179 53.9165 56.0444 53.9975 56.3648 54C56.9635 53.9902 57.9421 53.9803 58.9655 53.973C61.4808 53.9533 62.4784 53.5446 63.1592 52.1758C63.1693 52.1684 63.1724 52.1586 63.1814 52.1532C63.4512 51.5872 63.663 51.0581 63.9513 50.4031C64.0751 50.073 63.9766 49.935 63.4955 50.0288Z" fill="#B69D75"/>
<path fill-rule="evenodd" clip-rule="evenodd" d="M60.5205 55.034C60.4926 55.0392 60.4592 55.0443 60.4314 55.052C60.3807 55.0623 60.325 55.07 60.2753 55.0803C59.9879 55.1295 59.6606 55.1706 59.4935 55.2656C59.3625 55.3375 59.2005 55.6286 59.0556 55.8755C57.9613 57.7871 57.3336 57.9699 56.7137 58.1963C55.2958 58.7159 52.1924 58.8191 49.6527 58.4279C49.1252 58.3452 48.5727 58.2528 48.017 58.1603C45.8933 57.8051 43.7022 57.4374 42.3934 57.6146L37.1826 58.317C37.1826 58.317 36.9592 58.2913 37.0066 58.5978C37.0066 58.5978 37.0456 59.1816 37.0679 59.4517C37.0906 59.7222 37.3223 59.6524 37.3223 59.6524L42.6162 58.9372C43.6827 58.7981 45.8375 59.1585 47.7412 59.4774C48.3071 59.5728 48.8652 59.6653 49.3987 59.7479C50.4285 59.9071 51.6789 60 52.9181 60C54.5649 60 56.1946 59.8352 57.2802 59.4363C58.3996 59.0275 59.3899 58.5075 60.8831 55.5537C61.1176 55.0781 61.0006 54.9236 60.5205 55.034Z" fill="#B69D75"/>
<path fill-rule="evenodd" clip-rule="evenodd" d="M64.4949 44.0288C64.1374 44.0975 63.6693 44.2011 63.4003 44.2993C63.4003 44.2993 63.3966 44.2993 63.3935 44.3018C63.235 44.3583 63.1344 44.4889 63.0554 44.6317C62.9254 44.9219 62.8648 45.1041 62.7353 45.3795C62.7321 45.3894 62.7227 45.3943 62.7164 45.4041C62.6784 45.5027 62.6405 45.5838 62.6021 45.6673C62.571 45.7361 62.5421 45.7905 62.5105 45.8568C62.3304 46.199 62.1309 46.4032 61.7607 46.5236C61.3843 46.6443 60.8335 46.6812 59.95 46.6885C59.3714 46.6935 58.8138 46.6984 58.3199 46.7057C58.1367 46.7082 57.8771 46.7229 57.6781 46.824C57.6081 46.8584 57.5449 46.9002 57.4975 46.9566C57.2759 47.21 57.1869 47.4364 57.0542 47.6725C56.9178 47.9165 57.0452 48 57.3643 48C57.963 47.9926 58.9407 47.9804 59.96 47.973C61.2189 47.9632 62.0993 47.8547 62.7485 47.5792C63.3966 47.3033 63.8178 46.8605 64.1595 46.1744C64.169 46.1671 64.1722 46.1572 64.1785 46.1519C64.4507 45.5862 64.6629 45.0574 64.9509 44.4029C65.0746 44.073 64.9793 43.935 64.4949 44.0288Z" fill="#B69D75"/>
<mask id="mask0_85_283" style="mask-type:luminance" maskUnits="userSpaceOnUse" x="0" y="0" width="84" height="90">
<path fill-rule="evenodd" clip-rule="evenodd" d="M0.000488281 0.110733H83.8322V89.5288H0.000488281V0.110733Z" fill="white"/>
</mask>
<g mask="url(#mask0_85_283)">
<path fill-rule="evenodd" clip-rule="evenodd" d="M37.5497 0.33135C14.5638 2.63978 -2.17656 22.4558 0.230801 44.5039C1.09991 52.4602 4.35014 59.6319 9.22453 65.4471C9.31091 68.3049 8.44705 73.7831 7.4171 76.8478C5.91082 81.329 3.06198 86.4755 2.70928 87.0504L1.18296 89.5289L23.862 76.5844C30.6126 79.6887 38.3043 81.1023 46.2828 80.3004C69.2659 77.9919 86.0091 58.1764 83.6022 36.1283C81.192 14.0801 60.5356 -1.97708 37.5497 0.33135ZM46.1225 78.8335C38.2556 79.6237 30.676 78.1762 24.0658 75.0351C24.0567 75.0379 24.0515 75.0408 24.0458 75.0436C23.925 74.93 23.7904 74.8876 23.5923 75.0012L22.267 75.7575C22.2469 75.766 22.2269 75.7773 22.2068 75.7829C22.2092 75.7857 22.2121 75.7857 22.2154 75.7886L5.30851 85.4586C6.41864 83.3057 7.93637 80.1166 8.88041 77.3011C9.99055 74.0013 10.8831 68.2568 10.7566 65.2491C10.7566 64.8863 10.4268 64.5381 10.4268 64.5211C5.73328 58.9209 2.5976 52.0159 1.75998 44.3508C-0.558608 23.1131 15.568 4.02229 37.7105 1.79868C59.8527 -0.424933 79.7521 15.0433 82.0702 36.2809C84.3916 57.5219 68.2646 76.6099 46.1225 78.8335Z" fill="#B69D75"/>
</g>
<path fill-rule="evenodd" clip-rule="evenodd" d="M34.4834 36.6888C34.4567 36.3024 34.1082 36 33.6889 36H29.0496C28.7462 36 28.6273 36.085 28.7556 36.3644C28.8803 36.6353 28.964 36.895 29.1719 37.1856C29.3743 37.4706 29.8174 37.4763 30.0352 37.4763H32.5732C32.7905 37.4791 32.9211 37.5129 32.9419 37.6655L33.0018 38.436V38.4332L33.5612 46.7146C33.5642 46.816 33.5667 46.9344 33.5726 46.9968C33.5939 47.2198 33.5612 47.3297 33.338 47.3551H30.4277C30.1238 47.3551 30.002 47.4372 30.1302 47.7194C30.255 47.9904 30.3386 48.25 30.55 48.5407C30.752 48.8257 31.1688 48.8032 31.3856 48.8032H33.2934C33.531 48.806 33.6919 48.8144 33.7102 48.9755L33.7157 49.0234L34.3315 58.1711C34.3493 58.3941 34.3166 58.504 34.0904 58.5266L34.0488 58.5294H29.9545C29.9545 58.5294 29.7852 58.5378 29.6332 58.5294C29.4788 58.5209 28.3744 58.4477 28.1482 57.5753C28.0709 57.2705 27.9962 56.5873 27.9784 56.3676C27.9784 56.3676 27.7908 53.4348 27.6868 51.7782C27.6814 51.4988 27.6635 51.2359 27.6363 50.9964C27.6363 50.9903 27.6333 50.9847 27.6333 50.9795C27.6304 50.9682 27.6333 50.9598 27.6333 50.9452C27.6274 50.8945 27.622 50.841 27.6155 50.7875C27.6096 50.7452 27.6012 50.7109 27.5977 50.6687L27.6012 50.6659C27.5977 50.649 27.5918 50.6377 27.5888 50.6208C27.4457 49.5934 27.0977 49.0121 26.5562 48.566C26.5507 48.5632 26.5478 48.5576 26.5413 48.552C26.5413 48.552 26.5384 48.552 26.5384 48.5548C26.2943 48.3543 26.0151 48.2303 25.6904 48.0552C26.5265 47.4311 26.8091 46.9344 27.0354 46.2432C27.2646 45.5515 27.1665 43.7875 27.1665 43.7875L26.9072 39.531C26.9017 39.4324 26.821 38.5515 26.6988 38.0801C26.2621 36.3813 24.4053 36 23.7415 36H19.7987C19.5789 36 19.3675 36.0822 19.2185 36.2315C19.0665 36.3785 18.9893 36.5761 19.0012 36.779L20.516 59.3084C20.5427 59.6981 20.8907 59.9972 21.3134 59.9972H22.0599V60H24.2563C24.5598 60 24.6815 59.9183 24.5509 59.6361C24.4286 59.3647 24.3425 59.1055 24.1341 58.8149C23.9321 58.5294 23.4885 58.5237 23.2712 58.5237H22.9257V58.5209H22.4559C22.2119 58.5209 22.0723 58.4928 22.0515 58.3289L22.0213 57.9227L20.6466 37.4678H23.6435C23.8544 37.4678 24.9231 37.5495 25.1488 38.4219C25.2266 38.7267 25.2973 39.4127 25.3181 39.6301C25.3181 39.6301 25.4379 41.8116 25.5716 43.7875C25.7349 46.1953 25.3751 46.5395 25.1043 46.7907C24.7296 47.1349 24.3781 47.4311 24.1133 47.5866C23.8603 47.7561 23.5064 47.9138 23.3663 47.996C23.0688 48.1735 23.5955 48.1993 24.9137 48.9863C25.1488 49.1276 25.3632 49.3309 25.5389 49.6216C25.5652 49.6638 25.5889 49.7089 25.6132 49.7545C25.6577 49.8418 25.7023 49.9291 25.7379 50.0221C25.9404 50.4884 26.0592 51.019 26.0924 51.6538C26.0983 51.7669 26.131 52.2013 26.131 52.2097L26.3869 56.4662C26.3958 56.5653 26.476 57.4457 26.5978 57.9171C27.0354 59.6164 28.8476 59.9972 29.556 59.9972H29.8832H35.2037C35.4235 59.9972 35.6349 59.9155 35.7839 59.7657C35.9358 59.6187 36.013 59.4215 35.9982 59.2182L34.4834 36.6888Z" fill="white"/>
</g>
<defs>
<clipPath id="clip0_85_283">
<rect width="84" height="90" fill="white"/>
</clipPath>
</defs>
</svg>
